# xmcd
#
# Track frame offsets: 
#        150
#        18744
#        48991
#        80264
#        99051
#        117736
#        131042
#        152342
#        175542
#        196119
#        222928
#        240309
#        261277
#        295466
#        317499
#
# Disc length: 4551 seconds
#
# Revision: 0
# Processed by: cddbd v1.5.2PL0 Copyright (c) Steve Scherf et al.
# Submitted via: ExactAudioCopy v0.99pb4
#
DISCID=c411c50f
DTITLE=Various Artist - Bertallosophie Vol.3 - Disc 2
DYEAR=2004
DGENRE=Electronic
TTITLE0=Amalia Grè - Profondo
TTITLE1=Telefon Tel Aviv - At The Edge Of The World You Will Still Flo
TTITLE1=at
TTITLE2=U.N.K.L.E. - In A State
TTITLE3=Air - Run
TTITLE4=Mckay - Loving You
TTITLE5=Bing Ji Ling - You Shook Me All Night Long
TTITLE6=Loopless - Raining Down
TTITLE7=Alessio Bertallot - Acqua
TTITLE8=Bus Feat. Mc Soom - Keep Life Right
TTITLE9=N.O.H.A. - Balkan Hot Step
TTITLE10=Stefano Miele Feat. Caparezza - Musicanarkica
TTITLE11=Terry Walker - Love You For Life
TTITLE12=N.E.R.D - Provider (Zero 7 Remix)
TTITLE13=Ilya - Philadelphia And Blue
TTITLE14=Alison Crockett - Save Me
EXTD=
EXTT0=
EXTT1=
EXTT2=
EXTT3=
EXTT4=
EXTT5=
EXTT6=
EXTT7=
EXTT8=
EXTT9=
EXTT10=
EXTT11=
EXTT12=
EXTT13=
EXTT14=
PLAYORDER=
